HIERARCHY
ROOT Hips
{
	OFFSET -0.179506 -22.333345 2.821913
	CHANNELS 6 Xposition Yposition Zposition Zrotation Yrotation Xrotation 
	JOINT LeftUpLeg
	{
		OFFSET 6.951974 -9.140623 -0.681533
		CHANNELS 3 Zrotation Yrotation Xrotation
		JOINT LeftLeg
		{
			OFFSET 3.427654 -37.519855 -0.449580
			CHANNELS 3 Zrotation Yrotation Xrotation
			JOINT LeftFoot
			{
				OFFSET -1.359570 -39.796059 -4.369333
				CHANNELS 3 Zrotation Yrotation Xrotation
				JOINT LeftToe
				{
					OFFSET 2.635814 -5.579078 11.928840
					CHANNELS 3 Zrotation Yrotation Xrotation
					End Site
					{
						OFFSET 0.000000 0.000000 0.000000
					}
				}
			}
		}
	}
	JOINT RightUpLeg
	{
		OFFSET -6.767048 -9.052170 -0.431982
		CHANNELS 3 Zrotation Yrotation Xrotation
		JOINT RightLeg
		{
			OFFSET -3.829005 -38.256897 -0.885003
			CHANNELS 3 Zrotation Yrotation Xrotation
			JOINT RightFoot
			{
				OFFSET 1.577377 -39.841461 -4.231180
				CHANNELS 3 Zrotation Yrotation Xrotation
				JOINT RightToe
				{
					OFFSET -2.537174 -4.814398 12.334795
					CHANNELS 3 Zrotation Yrotation Xrotation
					End Site
					{
						OFFSET 0.000000 0.000000 0.000000
					}
				}
			}
		}
	}
	JOINT Spine
	{
		OFFSET -0.253288 10.896323 -2.669631
		CHANNELS 3 Zrotation Yrotation Xrotation
		JOINT Spine1
		{
			OFFSET 0.548704 13.518043 0.109247
			CHANNELS 3 Zrotation Yrotation Xrotation
			JOINT Spine2
			{
				OFFSET 0.145701 5.292222 2.542457
				CHANNELS 3 Zrotation Yrotation Xrotation
				JOINT Neck
				{
					OFFSET -0.277840 21.387037 -4.285703
					CHANNELS 3 Zrotation Yrotation Xrotation
					JOINT Head
					{
						OFFSET 0.515184 6.496960 5.134897
						CHANNELS 3 Zrotation Yrotation Xrotation
						End Site
						{
							OFFSET 0.000000 0.000000 0.000000
						}
					}
				}
				JOINT LeftShoulder
				{
					OFFSET 7.884473 12.174932 -3.408961
					CHANNELS 3 Zrotation Yrotation Xrotation
					JOINT LeftArm
					{
						OFFSET 9.097692 3.046888 -0.886815
						CHANNELS 3 Zrotation Yrotation Xrotation
						JOINT LeftForeArm
						{
							OFFSET 25.961220 -1.277207 -2.745643
							CHANNELS 3 Zrotation Yrotation Xrotation
							JOINT LeftHand
							{
								OFFSET 24.923361 0.898606 -0.117091
								CHANNELS 3 Zrotation Yrotation Xrotation
								End Site
								{
									OFFSET 0.000000 0.000000 0.000000
								}
							}
						}
					}
				}
				JOINT RightShoulder
				{
					OFFSET -8.175920 11.883285 -3.861528
					CHANNELS 3 Zrotation Yrotation Xrotation
					JOINT RightArm
					{
						OFFSET -9.601238 3.255117 -0.914307
						CHANNELS 3 Zrotation Yrotation Xrotation
						JOINT RightForeArm
						{
							OFFSET -25.374195 -1.332924 -2.140099
							CHANNELS 3 Zrotation Yrotation Xrotation
							JOINT RightHand
							{
								OFFSET -25.529810 0.777228 -0.555919
								CHANNELS 3 Zrotation Yrotation Xrotation
								End Site
								{
									OFFSET 0.000000 0.000000 0.000000
								}
							}
						}
					}
				}
			}
		}
	}
}
MOTION
Frames: 13
Frame Time: 0.033333
-22.625412 2.155123 91.226852 -179.748742 -2.258446 82.413873 -0.967796 -0.305198 -3.182450 -4.188279 -0.665812 12.436063 1.223532 9.415667 -11.577479 nan nan nan -0.418948 -2.623862 -2.470241 2.179500 -0.358995 6.343119 3.075500 -4.108809 -5.109784 nan nan nan 0.018921 1.179712 13.562747 0.237760 -2.439756 -0.478765 -0.645348 -0.677444 2.360900 3.281883 3.439139 1.983542 -1.422174 -1.082961 16.200592 -21.495231 -10.539381 -3.367615 -38.937405 -17.940869 17.088052 -2.120811 -65.782145 10.150429 3.814042 -18.528374 -15.330847 18.108403 14.659271 -4.117960 45.075437 17.125432 21.418649 -4.926734 52.619869 2.565171 5.302151 6.924527 -8.668611 
-22.709875 2.351962 91.232903 -179.729204 -2.238708 82.425170 -1.202442 -0.578862 -3.223531 -4.131141 -0.647726 12.586193 1.603349 9.228387 -10.784363 nan nan nan -0.529099 -2.647023 -2.340500 2.260783 -0.430892 6.368893 3.059516 -3.944792 -5.271800 nan nan nan 0.134097 1.206685 13.526500 0.241364 -2.532455 -0.492069 -0.644787 -0.739756 2.325056 3.239821 3.457350 2.043426 -1.477574 -1.011032 16.266717 -21.421916 -10.746782 -3.587770 -38.882200 -18.205165 17.358232 -2.954055 -66.742145 11.071494 4.530427 -19.025194 -15.581083 17.821933 14.994528 -4.223785 44.938122 17.715285 21.659639 -4.919200 54.413257 2.576112 4.531212 7.235836 -9.250627 
-22.806149 2.575791 91.217003 -179.573002 -2.192021 82.514013 -1.476048 -0.859460 -3.294053 -3.773389 -0.403572 12.697254 2.132780 9.346996 -10.363290 nan nan nan -0.607310 -2.712177 -2.271955 2.300931 -0.600218 6.331803 3.000673 -3.873962 -5.464545 nan nan nan 0.301767 1.139602 13.288382 0.246964 -2.708802 -0.407233 -0.678109 -0.799384 2.305472 3.087945 3.431855 2.141731 -1.544593 -0.911701 16.231124 -21.299957 -10.825555 -3.852284 -38.919637 -18.458236 17.613775 -3.556948 -67.849830 12.014458 4.621709 -18.993728 -15.965169 17.605490 15.320152 -4.326259 44.827382 18.318482 21.903748 -5.246033 56.129942 2.343225 4.036182 7.279740 -9.884117 
-22.895338 2.836130 91.218491 -179.362332 -2.035144 82.510747 -1.537290 -1.028922 -3.124966 -3.397017 -0.042687 12.630353 2.421870 9.636829 -10.177047 nan nan nan -0.574057 -2.825380 -1.938964 2.375564 -0.771998 6.084975 2.908306 -3.832737 -5.643338 nan nan nan 0.552366 1.088042 12.996304 0.270925 -2.906113 -0.182577 -0.716220 -0.851425 2.246196 3.049810 3.347571 2.318498 -1.628337 -0.868934 16.182898 -21.147524 -11.007236 -3.947370 -39.037186 -18.716385 17.756866 -3.640740 -69.055816 12.715477 3.623887 -18.941652 -16.374733 17.368192 15.608668 -4.491491 44.816359 18.786393 22.110876 -6.020621 57.803044 2.184189 3.679057 7.288753 -9.848328 
-22.926373 3.052404 91.226196 -179.485684 -1.894439 82.443856 -1.409660 -0.924902 -2.838968 -3.173316 0.599310 12.519804 2.549466 9.805900 -10.032220 nan nan nan -0.430040 -2.762107 -1.737670 2.372108 -0.736859 6.165687 2.869301 -3.797213 -5.825144 nan nan nan 0.661875 1.151105 12.873750 0.295506 -2.867711 0.000017 -0.703878 -0.830783 2.198523 3.136531 3.339175 2.386149 -1.675610 -0.833455 16.275992 -20.927274 -11.352518 -3.975509 -39.086608 -19.044812 17.917375 -4.108342 -70.130522 13.419996 3.563521 -19.249934 -16.693108 17.174491 15.931240 -4.647414 44.765288 19.209181 22.289948 -6.709420 59.449446 1.717986 2.838107 7.726879 -9.912508 
-22.821548 3.214595 91.243057 179.868704 -1.857117 82.257060 -1.065822 -0.314150 -2.313364 -3.304762 1.270917 12.216630 2.548375 9.734956 -9.865908 nan nan nan -0.076397 -2.435347 -1.619347 2.068473 -0.479612 6.470879 2.820755 -3.714101 -6.010772 nan nan nan 0.310765 1.234190 13.170646 0.394708 -2.431320 0.016281 -0.486895 -0.607270 2.075474 3.218771 3.421263 2.305336 -1.745295 -0.861336 16.460314 -20.715016 -11.640366 -4.195989 -38.967521 -19.395766 18.080284 -5.216271 -71.109880 14.441302 4.350909 -19.425472 -16.971338 17.102850 16.255083 -4.868513 44.711329 19.602307 22.524245 -7.285480 61.144759 0.812086 2.145615 8.150352 -10.552375 
-22.935612 3.400700 91.217094 179.927496 -1.874051 82.348226 -1.151431 -0.112127 -2.274087 -3.287572 1.594331 12.124959 2.792479 9.554022 -9.687500 nan nan nan -0.243769 -2.552543 -1.679267 2.118645 -0.586393 6.665995 2.804961 -3.470544 -6.168238 nan nan nan 0.377486 1.203068 13.084674 0.385019 -2.494514 -0.062903 -0.504244 -0.639448 1.993473 3.140926 3.373264 2.461026 -1.691066 -0.738077 16.487583 -20.581439 -11.812026 -4.422642 -38.822938 -19.702021 18.073419 -6.949176 -72.175092 15.768207 4.771958 -19.242857 -17.171501 16.994624 16.484866 -4.944694 44.574829 20.098189 22.585541 -7.704295 62.965368 0.168468 2.151589 8.113789 -10.851227 
-23.006227 3.578730 91.182632 179.949558 -1.847297 82.450885 -1.098271 0.094707 -2.117820 -3.385051 1.773277 11.782976 2.864260 9.299176 -9.627492 nan nan nan -0.318118 -2.628949 -1.787894 2.131113 -0.714674 6.919421 2.910104 -3.215195 -6.400686 nan nan nan 0.385666 1.228435 12.858892 0.439813 -2.557267 0.034346 -0.488413 -0.686851 1.968282 3.126046 3.346401 2.499286 -1.771141 -0.792467 16.497037 -20.387950 -12.097397 -4.505993 -38.854822 -19.996748 18.124049 -8.347367 -73.240961 17.245743 5.456068 -19.458105 -16.729187 16.731161 16.746352 -5.065370 44.614410 20.644263 22.593153 -8.296608 64.631415 -0.144585 2.116367 8.249600 -10.941059 
-23.029448 3.769376 91.148949 179.891921 -1.749338 82.526401 -0.909409 0.312412 -1.760577 -3.527774 2.009912 11.153456 2.871862 9.089572 -9.578408 nan nan nan -0.222467 -2.569782 -1.775628 2.086647 -0.786811 6.984135 2.930042 -3.065659 -6.534887 nan nan nan 0.360934 1.263710 12.595194 0.554723 -2.531970 0.236507 -0.434038 -0.693931 1.895057 3.154309 3.389518 2.634620 -1.855256 -0.930896 16.331447 -20.180040 -12.352281 -4.579659 -38.787240 -20.437896 18.211347 -9.726772 -74.280352 18.473486 5.089225 -19.919735 -17.481108 16.451967 16.913426 -5.191577 44.762270 21.254712 22.793332 -9.122065 66.170934 -0.626928 2.189402 8.563380 -11.318283 
-23.042706 3.953730 91.127441 179.865756 -1.563623 82.624704 -0.678660 0.708789 -1.424824 -3.617092 1.927991 10.567403 2.893624 8.950793 -9.653178 nan nan nan -0.002582 -2.621088 -1.749064 2.011953 -0.779900 6.963968 2.916304 -2.961548 -6.601998 nan nan nan 0.371703 1.245553 12.342394 0.685510 -2.502376 0.357508 -0.350348 -0.641786 1.825493 3.266317 3.338320 2.784557 -1.979295 -0.963113 16.195789 -20.002779 -12.617217 -4.674172 -38.809918 -20.839017 18.338754 -11.833117 -75.284768 21.191944 5.182390 -19.638720 -16.968752 16.155275 17.056015 -5.360794 44.898143 21.714384 22.912701 -9.551312 67.763388 -0.723693 1.777427 8.787893 -11.913237 
-23.113697 4.133939 91.105759 179.874026 -1.428830 82.705253 -0.648799 0.906336 -0.996548 -3.569617 1.523780 9.855366 2.953455 9.055382 -9.777445 nan nan nan 0.068474 -2.644699 -1.688216 2.036339 -0.816642 6.940306 2.892486 -2.938323 -6.704036 nan nan nan 0.423998 1.135371 12.111864 0.767024 -2.529285 0.435450 -0.317486 -0.538514 1.778093 3.357170 3.434128 2.843386 -2.063909 -1.014711 16.283208 -19.771679 -12.850691 -4.760951 -38.931701 -21.195134 18.483273 -12.641377 -76.256135 22.697704 5.231095 -19.656207 -17.146509 15.857272 17.256266 -5.470665 44.967488 22.150237 23.031136 -10.475924 69.261057 -1.086183 1.350822 8.971969 -12.210468 
-23.204401 4.315044 91.066460 179.852901 -1.416875 82.780018 -0.795769 0.920771 -0.529089 -3.470172 1.196212 9.071862 3.080858 9.202191 -9.960261 nan nan nan 0.008765 -2.587238 -1.644679 2.039593 -0.950608 6.947227 2.865944 -2.889069 -6.899579 nan nan nan 0.438908 1.048115 11.840510 0.753012 -2.546830 0.581522 -0.333198 -0.481685 1.768710 3.492143 3.597966 2.763008 -2.125682 -1.143012 16.417110 -19.498862 -12.981085 -4.978951 -38.794151 -21.593011 18.541673 -14.021358 -77.255757 23.830842 4.900213 -20.447710 -17.749487 15.653403 17.464144 -5.583887 45.073664 22.719767 23.308718 -11.801480 70.580983 -2.250321 1.017144 9.159025 -12.441305 
-23.257294 4.479872 91.015480 179.903589 -1.391055 82.924827 -0.928197 0.979101 -0.276986 -3.277191 0.867499 8.509782 3.223585 9.162584 -10.187796 nan nan nan 0.016824 -2.501421 -1.715006 2.019974 -1.234785 6.959290 2.766123 -2.923009 -7.226008 nan nan nan 0.432627 0.972937 11.537303 0.756502 -2.570708 0.594591 -0.329624 -0.495114 1.860499 3.537438 3.664508 2.662364 -2.226506 -1.257039 16.557922 -19.161250 -13.056223 -5.183273 -39.125583 -22.008522 18.843142 -15.053575 -78.064804 25.657987 5.990253 -20.990285 -18.511586 15.526422 17.677315 -5.709858 45.189527 23.280563 23.575696 -12.566685 71.866658 -2.704149 -0.040106 9.492822 -13.008376 
